<svg width="62" height="67" viewBox="0 0 62 67" fill="none" xmlns="http://www.w3.org/2000/svg">
<path fill-rule="evenodd" clip-rule="evenodd" d="M3.38008 35.5575L6.07589 59.4943C6.48876 63.21 9.42744 66 12.9126 66H49.051C52.5361 66 55.4627 63.21 55.8877 59.4943L58.5835 35.5575C58.6563 34.9577 58.2192 34.4232 57.6484 34.4232H4.31511C3.74438 34.4362 3.30722 34.9577 3.38008 35.5575ZM15.2319 60.1462C15.2319 60.8502 14.6976 61.4238 14.0419 61.4238H11.3947C10.7389 61.4238 10.2046 60.8502 10.2046 60.1462V40.2901C10.2046 39.586 10.7389 39.0124 11.3947 39.0124H14.054C14.7098 39.0124 15.2441 39.586 15.2441 40.2901V60.1462H15.2319ZM24.3637 60.1462C24.3637 60.8502 23.8294 61.4238 23.1736 61.4238H20.5143C19.8585 61.4238 19.3242 60.8502 19.3242 60.1462V40.2901C19.3242 39.586 19.8585 39.0124 20.5143 39.0124H23.1736C23.8294 39.0124 24.3637 39.586 24.3637 40.2901V60.1462ZM33.4954 60.1462C33.4954 60.8502 32.9611 61.4238 32.3054 61.4238H29.646C28.9903 61.4238 28.456 60.8502 28.456 60.1462V40.2901C28.456 39.586 28.9903 39.0124 29.646 39.0124H32.3054C32.9611 39.0124 33.4954 39.586 33.4954 40.2901V60.1462ZM42.6151 60.1462C42.6151 60.8502 42.0807 61.4238 41.425 61.4238H38.7656C38.1099 61.4238 37.5756 60.8502 37.5756 60.1462V40.2901C37.5756 39.586 38.1099 39.0124 38.7656 39.0124H41.4372C42.0929 39.0124 42.6272 39.586 42.6272 40.2901V60.1462H42.6151ZM51.7468 60.1462C51.7468 60.8502 51.2125 61.4238 50.5568 61.4238H47.8974C47.2416 61.4238 46.7073 60.8502 46.7073 60.1462V40.2901C46.7073 39.586 47.2416 39.0124 47.8974 39.0124H50.5568C51.2125 39.0124 51.7468 39.586 51.7468 40.2901V60.1462Z" stroke="#F0F0F0" stroke-miterlimit="10" stroke-linecap="round" stroke-linejoin="round"/>
<path d="M8.20097 23.9709H2.19004C1.5343 23.9709 1 24.5445 1 25.2485V28.3775C1 29.0816 1.5343 29.6552 2.19004 29.6552H59.81C60.4657 29.6552 61 29.0816 61 28.3775V25.2485C61 24.5445 60.4657 23.9709 59.81 23.9709H53.8355" stroke="#F0F0F0" stroke-miterlimit="10" stroke-linecap="round" stroke-linejoin="round"/>
<path d="M50.1075 23.9709H11.9532" stroke="#F0F0F0" stroke-miterlimit="10" stroke-linecap="round" stroke-linejoin="round"/>
<path fill-rule="evenodd" clip-rule="evenodd" d="M29.4639 4.74055C30.326 3.73666 30.1682 2.10698 29.0389 1.33776C28.3588 0.868414 27.4481 0.894489 26.7802 1.37688C26.0516 1.91141 25.7845 2.78493 25.9059 3.59325L7.13236 25.3659C6.76806 25.7831 6.79235 26.4349 7.18094 26.8261L7.61809 27.2563C8.00668 27.6474 8.61384 27.6213 8.97814 27.2041L27.7517 5.43154C28.371 5.49672 29.0024 5.26205 29.4639 4.74055Z" stroke="#F0F0F0" stroke-miterlimit="10" stroke-linecap="round" stroke-linejoin="round"/>
<path fill-rule="evenodd" clip-rule="evenodd" d="M32.524 4.74055C31.6618 3.73666 31.8197 2.10698 32.949 1.33776C33.629 0.868414 34.5398 0.894489 35.2076 1.37688C35.9362 1.91141 36.2034 2.78493 36.082 3.59325L54.8555 25.3659C55.2198 25.7831 55.1955 26.4349 54.8069 26.8261L54.3698 27.2563C53.9812 27.6474 53.374 27.6213 53.0097 27.2041L34.2362 5.43154C33.6169 5.49672 32.9854 5.26205 32.524 4.74055Z" stroke="#F0F0F0" stroke-miterlimit="10" stroke-linecap="round" stroke-linejoin="round"/>
</svg>
